<svg width="209" height="200" viewBox="0 0 209 200" fill="none" xmlns="http://www.w3.org/2000/svg">
<path d="M208.798 79.1583C208.798 72.5388 203.536 67.1866 197.059 67.1866C196.883 67.1866 196.708 67.2004 196.538 67.2103L196.449 66.8794H135.134L117.64 13.0497L117.484 13.0404C117.314 5.82538 111.531 0 104.397 0C97.3994 0 91.7065 5.59329 91.3331 12.6431H91.2861L73.6552 66.8794H14.6853C14.028 66.7752 13.3614 66.7042 12.6664 66.7042C5.67357 66.7048 0 72.4825 0 79.6218C0 85.2484 3.54117 90.0192 8.46325 91.7921L54.6616 125.353L36.0563 182.629L36.4066 182.889C35.9381 184.204 35.6734 185.622 35.6734 187.111C35.6734 193.981 41.1395 199.551 47.8863 199.551C50.8317 199.551 53.5364 198.478 55.6497 196.695L55.787 196.808L104.392 161.49L153.749 197.352L153.985 197.192C156.056 198.941 158.718 200 161.611 200C168.226 200 173.583 194.534 173.583 187.801C173.583 186.567 173.403 185.385 173.068 184.265L173.238 184.161L154.137 125.353L202.95 89.8819L202.85 89.5603C206.401 87.4896 208.798 83.6028 208.798 79.1583Z" fill="#A98C4A"/>
</svg>
