<svg width="105" height="200" viewBox="0 0 105 200" fill="none" xmlns="http://www.w3.org/2000/svg">
<path fill-rule="evenodd" clip-rule="evenodd" d="M104.4 161.495L104.392 161.49L55.787 196.808L55.6497 196.695C53.5364 198.478 50.8317 199.551 47.8863 199.551C41.1395 199.551 35.6735 193.981 35.6735 187.111C35.6735 185.622 35.9381 184.204 36.4066 182.889L36.0563 182.629L54.6616 125.353L8.46326 91.7921C3.5412 90.0192 0 85.2484 0 79.6218C0 72.4825 5.67358 66.7048 12.6664 66.7042C13.3615 66.7042 14.028 66.7752 14.6853 66.8794H73.6552L91.2861 12.6431H91.3331C91.7065 5.59329 97.3994 0 104.397 0C104.398 0 104.399 0 104.4 0V161.495Z" fill="#A98C4A"/>
</svg>
